<?xml version="1.0" encoding="UTF-8"?><svg id="Layer_1" xmlns="http://www.w3.org/2000/svg" xmlns:xlink="http://www.w3.org/1999/xlink" viewBox="0 0 3040 560"><defs><style>.cls-1{fill:none;}.cls-2{fill:url(#linear-gradient);}.cls-3{clip-path:url(#clippath);}.cls-4{fill:#ff5630;}.cls-5{fill:#ffbdad;}.cls-6{fill:#ff431c;}.cls-7{fill:#ff7452;}.cls-8,.cls-9{fill:#ff8f73;}.cls-10,.cls-11{fill:#de350b;}.cls-9,.cls-11{isolation:isolate;}.cls-9,.cls-11,.cls-12{opacity:.4;}</style><clipPath id="clippath"><rect class="cls-1" width="3040" height="560"/></clipPath><linearGradient id="linear-gradient" x1="1519.98" y1="-5421.97" x2="1519.98" y2="-7131.96" gradientTransform="translate(0 7002)" gradientUnits="userSpaceOnUse"><stop offset="0" stop-color="#ff7452"/><stop offset=".99" stop-color="#ff5630"/></linearGradient></defs><g class="cls-3"><g id="_2"><rect class="cls-2" y="-129.96" width="3039.97" height="1709.98"/><g class="cls-12"><polygon class="cls-1" points="3040 421.01 3040 285.89 2872.06 421.01 3040 421.01"/><polygon class="cls-1" points="3040 429.92 3040 427.89 3037.48 429.92 3040 429.92"/><polygon class="cls-1" points="3040 279 3040 1.87 2695.58 279 3040 279"/><polygon class="cls-6" points="1148.44 23.9 909.11 216.47 512.44 216.47 318.37 372.62 523.82 372.62 706.51 372.62 909.11 372.62 954.38 336.2 1037.14 269.61 1342.51 23.9 1148.44 23.9"/><polygon class="cls-8" points="749.34 -130.29 318.37 216.47 512.44 216.47 909.11 216.47 1148.44 23.9 1340.07 -130.29 749.34 -130.29"/><polygon class="cls-6" points="2695.58 279 2615.15 343.73 2377.38 343.73 2024.41 627.72 2200.91 627.72 2377.38 627.72 2615.15 627.72 2695.58 563.01 2872.06 421.01 3040 285.89 3040 279 2695.58 279"/><polygon class="cls-9" points="2872.06 -5.02 2615.15 201.72 2200.91 201.72 2024.41 343.73 2377.38 343.73 2615.15 343.73 2695.58 279 3040 1.87 3040 -5.02 2872.06 -5.02"/><polygon class="cls-8" points="2437.03 -130.29 2024.41 201.72 2200.91 201.72 2615.15 201.72 2872.06 -5.02 3027.76 -130.29 2437.03 -130.29"/><polygon class="cls-11" points="1872.05 529.7 1761.68 618.51 1722.76 649.83 1589.57 649.83 1479.2 649.83 1368.82 738.64 1479.2 738.64 1722.76 738.64 1872.05 618.51 1982.42 529.7 1872.05 529.7"/><polygon class="cls-4" points="1872.05 440.89 1761.68 529.7 1722.76 561 1589.57 561 1479.2 561 1368.82 649.83 1479.2 649.83 1589.57 649.83 1722.76 649.83 1761.68 618.51 1872.05 529.7 1982.42 440.89 1872.05 440.89"/><polygon class="cls-7" points="1872.05 352.07 1761.68 440.89 1722.76 472.2 1589.57 472.2 1479.2 472.2 1368.82 561 1479.2 561 1589.57 561 1722.76 561 1761.68 529.7 1872.05 440.89 1982.42 352.07 1872.05 352.07"/><polygon class="cls-8" points="1872.05 263.26 1761.68 352.07 1722.76 383.39 1589.57 383.39 1479.2 383.39 1368.82 472.2 1479.2 472.2 1589.57 472.2 1722.76 472.2 1761.68 440.89 1872.05 352.07 1982.42 263.26 1872.05 263.26"/><polygon class="cls-5" points="1628.49 174.45 1368.82 383.39 1479.2 383.39 1589.57 383.39 1722.76 383.39 1761.68 352.07 1872.05 263.26 1982.42 174.45 1628.49 174.45"/><polygon class="cls-11" points="225.62 423.46 115.25 423.46 .03 516.18 .03 604.99 225.62 423.46"/><polygon class="cls-10" points="115.25 334.65 4.88 423.46 .03 427.37 .03 516.18 115.25 423.46 225.62 334.65 115.25 334.65"/><polygon class="cls-4" points="115.25 245.84 4.88 334.65 .03 338.56 .03 423.46 4.88 423.46 115.25 334.65 225.62 245.84 115.25 245.84"/><polygon class="cls-10" points=".03 423.46 .03 427.37 4.88 423.46 .03 423.46"/><polygon class="cls-7" points="115.25 157.04 4.88 245.84 .03 249.74 .03 334.65 4.88 334.65 115.25 245.84 225.62 157.04 115.25 157.04"/><polygon class="cls-10" points=".03 334.65 .03 338.56 4.88 334.65 .03 334.65"/><polygon class="cls-8" points="115.25 68.23 4.88 157.04 .03 160.93 .03 245.84 4.88 245.84 115.25 157.04 225.62 68.23 115.25 68.23"/><polygon class="cls-7" points=".03 245.84 .03 249.74 4.88 245.84 .03 245.84"/><polygon class="cls-5" points=".03 -20.6 .03 68.23 .03 157.04 4.88 157.04 115.25 68.23 225.62 -20.6 .03 -20.6"/><polygon class="cls-4" points=".03 157.04 .03 160.93 4.88 157.04 .03 157.04"/><polygon class="cls-5" points="3037.48 429.92 2872.06 563.01 2606.47 778.65 2441.06 911.74 2406.32 939.69 2522.08 939.69 2653.65 939.69 2845.62 939.69 2996.98 939.69 2997.06 939.69 3040 939.69 3040 905.14 3040 877.13 3040 816.46 3040 761.36 3040 590.96 3040 569.89 3040 563.01 3040 429.92 3037.48 429.92"/></g></g></g></svg>