<svg width="824" height="656" viewBox="0 0 824 656" fill="none" xmlns="http://www.w3.org/2000/svg">
    <path d="M784 0H40C17.9086 0 0 17.9086 0 40V616C0 638.091 17.9086 656 40 656H784C806.091 656 824 638.091 824 616V40C824 17.9086 806.091 0 784 0Z" fill="#FFEBE6"/>
    <g filter="url(#filter0_d_22_37)">
        <path d="M706 96H118C106.954 96 98 104.954 98 116V540C98 551.046 106.954 560 118 560H706C717.046 560 726 551.046 726 540V116C726 104.954 717.046 96 706 96Z" fill="white"/>
        <path d="M164.667 185.333C160.248 185.333 156.667 188.916 156.667 193.333C156.667 197.751 160.248 201.334 164.667 201.334C169.085 201.334 172.667 197.751 172.667 193.333C172.667 188.916 169.084 185.333 164.667 185.333ZM164.667 198.667C161.721 198.667 159.333 196.279 159.333 193.333C159.333 190.388 161.721 188 164.667 188C167.612 188 170 190.388 170 193.333C170 196.279 167.612 198.667 164.667 198.667Z" fill="#3B88C3"/>
        <path d="M148.377 178.697V178.724C147.043 179.017 146 181.252 146 184C146 186.748 147.043 188.983 148.377 189.275V189.303L186.645 199.932V168.085L148.377 178.697Z" fill="#55ACEE"/>
        <path d="M187.333 200C191.015 200 194 192.837 194 184C194 175.163 191.015 168 187.333 168C183.651 168 180.667 175.163 180.667 184C180.667 192.837 183.651 200 187.333 200Z" fill="#226699"/>
        <path d="M394 174H220C214.477 174 210 178.477 210 184C210 189.523 214.477 194 220 194H394C399.523 194 404 189.523 404 184C404 178.477 399.523 174 394 174Z" fill="#C1C7D0"/>
        <path d="M194 256H146V304H194V256Z" fill="white" fill-opacity="0.01"/>
        <path d="M176 268H164C162.895 268 162 268.896 162 270C162 271.104 162.895 272 164 272H176C177.105 272 178 271.104 178 270C178 268.896 177.105 268 176 268Z" fill="#42526E"/>
        <path d="M176 274H164C162.895 274 162 274.896 162 276C162 277.104 162.895 278 164 278H176C177.105 278 178 277.104 178 276C178 274.896 177.105 274 176 274Z" fill="#42526E"/>
        <path d="M168 280H164C162.895 280 162 280.896 162 282C162 283.104 162.895 284 164 284H168C169.105 284 170 283.104 170 282C170 280.896 169.105 280 168 280Z" fill="#42526E"/>
        <path d="M160 264V296H180V264H160ZM156 263.98C156 261.784 157.794 260 160.012 260H179.988C182.204 260 184 261.796 184 263.98V296.02C184 298.218 182.206 300 179.988 300H160.012C158.953 300.002 157.936 299.584 157.185 298.838C156.433 298.092 156.007 297.078 156 296.02V263.98Z" fill="#42526E"/>
        <path d="M460 256H222C215.373 256 210 261.373 210 268C210 274.627 215.373 280 222 280H460C466.627 280 472 274.627 472 268C472 261.373 466.627 256 460 256Z" fill="#DEEBFF"/>
        <path d="M538 296H222C215.373 296 210 301.373 210 308C210 314.627 215.373 320 222 320H538C544.627 320 550 314.627 550 308C550 301.373 544.627 296 538 296Z" fill="#EBECF0"/>
        <path d="M194 352H146V400H194V352Z" fill="white" fill-opacity="0.01"/>
        <path d="M176 364H164C162.895 364 162 364.896 162 366C162 367.104 162.895 368 164 368H176C177.105 368 178 367.104 178 366C178 364.896 177.105 364 176 364Z" fill="#42526E"/>
        <path d="M176 370H164C162.895 370 162 370.896 162 372C162 373.104 162.895 374 164 374H176C177.105 374 178 373.104 178 372C178 370.896 177.105 370 176 370Z" fill="#42526E"/>
        <path d="M168 376H164C162.895 376 162 376.896 162 378C162 379.104 162.895 380 164 380H168C169.105 380 170 379.104 170 378C170 376.896 169.105 376 168 376Z" fill="#42526E"/>
        <path d="M160 360V392H180V360H160ZM156 359.98C156 357.784 157.794 356 160.012 356H179.988C182.204 356 184 357.796 184 359.98V392.02C184 394.218 182.206 396 179.988 396H160.012C158.953 396.002 157.936 395.584 157.185 394.838C156.433 394.092 156.007 393.078 156 392.02V359.98Z" fill="#42526E"/>
        <path d="M410 352H222C215.373 352 210 357.373 210 364C210 370.627 215.373 376 222 376H410C416.627 376 422 370.627 422 364C422 357.373 416.627 352 410 352Z" fill="#DEEBFF"/>
        <path d="M666 392H222C215.373 392 210 397.373 210 404C210 410.627 215.373 416 222 416H666C672.627 416 678 410.627 678 404C678 397.373 672.627 392 666 392Z" fill="#EBECF0"/>
        <path d="M194 448H146V496H194V448Z" fill="white" fill-opacity="0.01"/>
        <path d="M176 460H164C162.895 460 162 460.896 162 462C162 463.104 162.895 464 164 464H176C177.105 464 178 463.104 178 462C178 460.896 177.105 460 176 460Z" fill="#42526E"/>
        <path d="M176 466H164C162.895 466 162 466.896 162 468C162 469.104 162.895 470 164 470H176C177.105 470 178 469.104 178 468C178 466.896 177.105 466 176 466Z" fill="#42526E"/>
        <path d="M168 472H164C162.895 472 162 472.896 162 474C162 475.104 162.895 476 164 476H168C169.105 476 170 475.104 170 474C170 472.896 169.105 472 168 472Z" fill="#42526E"/>
        <path d="M160 456V488H180V456H160ZM156 455.98C156 453.784 157.794 452 160.012 452H179.988C182.204 452 184 453.796 184 455.98V488.02C184 490.218 182.206 492 179.988 492H160.012C158.953 492.002 157.936 491.584 157.185 490.838C156.433 490.092 156.007 489.078 156 488.02V455.98Z" fill="#42526E"/>
        <path d="M512 448H222C215.373 448 210 453.373 210 460C210 466.627 215.373 472 222 472H512C518.627 472 524 466.627 524 460C524 453.373 518.627 448 512 448Z" fill="#DEEBFF"/>
        <path d="M612 488H222C215.373 488 210 493.373 210 500C210 506.627 215.373 512 222 512H612C618.627 512 624 506.627 624 500C624 493.373 618.627 488 612 488Z" fill="#EBECF0"/>
    </g>
    <defs>
        <filter id="filter0_d_22_37" x="98" y="96" width="636" height="472" filterUnits="userSpaceOnUse" color-interpolation-filters="sRGB">
            <feFlood flood-opacity="0" result="BackgroundImageFix"/>
            <feColorMatrix in="SourceAlpha" type="matrix" values="0 0 0 0 0 0 0 0 0 0 0 0 0 0 0 0 0 0 127 0" result="hardAlpha"/>
            <feOffset dx="8" dy="8"/>
            <feComposite in2="hardAlpha" operator="out"/>
            <feColorMatrix type="matrix" values="0 0 0 0 0 0 0 0 0 0 0 0 0 0 0 0 0 0 0.1 0"/>
            <feBlend mode="normal" in2="BackgroundImageFix" result="effect1_dropShadow_22_37"/>
            <feBlend mode="normal" in="SourceGraphic" in2="effect1_dropShadow_22_37" result="shape"/>
        </filter>
    </defs>
</svg>