<svg width="824" height="656" viewBox="0 0 824 656" fill="none" xmlns="http://www.w3.org/2000/svg">
    <path d="M784 0H40C17.9086 0 0 17.9086 0 40V616C0 638.091 17.9086 656 40 656H784C806.091 656 824 638.091 824 616V40C824 17.9086 806.091 0 784 0Z" fill="#FFEBE6"/>
    <g filter="url(#filter0_d_22_37)">
        <path d="M668 96H156C144.954 96 136 104.954 136 116V546C136 557.046 144.954 566 156 566H668C679.046 566 688 557.046 688 546V116C688 104.954 679.046 96 668 96Z" fill="white"/>
        <path d="M226.69 186.908L207.126 167.662C206.25 166.782 205.098 166.666 203.946 166.666H190.511C188.039 166.666 186.667 168.038 186.667 170.51V183.954C186.667 185.102 186.785 186.25 187.661 187.126L207.066 206.69C208.814 208.436 211.57 208.436 213.318 206.69L226.73 193.238C228.476 191.49 228.436 188.654 226.69 186.908ZM195.228 175.228C194.448 176.008 193.184 176.008 192.404 175.228C191.624 174.448 191.623 173.184 192.404 172.404C193.184 171.622 194.448 171.624 195.228 172.404C196.008 173.186 196.009 174.448 195.228 175.228Z" fill="#FFD983"/>
        <path d="M197.269 170.362C195.363 168.454 192.271 168.454 190.364 170.362C188.456 172.27 188.456 175.362 190.364 177.27C192.271 179.176 195.363 179.176 197.271 177.27C199.178 175.362 199.176 172.27 197.269 170.362ZM195.229 175.23C194.449 176.01 193.184 176.01 192.404 175.23C191.624 174.45 191.623 173.184 192.404 172.404C193.184 171.622 194.449 171.624 195.229 172.404C196.009 173.184 196.011 174.448 195.229 175.23Z" fill="#D99E82"/>
        <path d="M195.343 174.002C194.821 174.522 193.979 174.522 193.456 174.002C192.935 173.48 192.936 172.638 193.456 172.116L204.77 160.802C205.29 160.282 206.134 160.282 206.656 160.802C207.178 161.324 207.176 162.166 206.656 162.688L195.343 174.002Z" fill="#C1694F"/>
        <path d="M432 174H258C252.477 174 248 178.477 248 184C248 189.523 252.477 194 258 194H432C437.523 194 442 189.523 442 184C442 178.477 437.523 174 432 174Z" fill="#C1C7D0"/>
        <path d="M232 258H184V306H232V258Z" fill="white" fill-opacity="0.01"/>
        <path d="M208 286C210.209 286 212 284.209 212 282C212 279.791 210.209 278 208 278C205.791 278 204 279.791 204 282C204 284.209 205.791 286 208 286Z" fill="#42526E"/>
        <path d="M466 256H256C251.582 256 248 259.582 248 264V300C248 304.418 251.582 308 256 308H466C470.418 308 474 304.418 474 300V264C474 259.582 470.418 256 466 256Z" fill="#FFEBE6"/>
        <path d="M448 272H274C268.477 272 264 276.477 264 282C264 287.523 268.477 292 274 292H448C453.523 292 458 287.523 458 282C458 276.477 453.523 272 448 272Z" fill="#97A0AF"/>
        <path d="M232 328H184V376H232V328Z" fill="white" fill-opacity="0.01"/>
        <path d="M208 356C210.209 356 212 354.209 212 352C212 349.791 210.209 348 208 348C205.791 348 204 349.791 204 352C204 354.209 205.791 356 208 356Z" fill="#42526E"/>
        <path d="M576 326H256C251.582 326 248 329.582 248 334V370C248 374.418 251.582 378 256 378H576C580.418 378 584 374.418 584 370V334C584 329.582 580.418 326 576 326Z" fill="#E3FCEF"/>
        <path d="M558 342H274C268.477 342 264 346.477 264 352C264 357.523 268.477 362 274 362H558C563.523 362 568 357.523 568 352C568 346.477 563.523 342 558 342Z" fill="#97A0AF"/>
        <path d="M232 398H184V446H232V398Z" fill="white" fill-opacity="0.01"/>
        <path d="M208 426C210.209 426 212 424.209 212 422C212 419.791 210.209 418 208 418C205.791 418 204 419.791 204 422C204 424.209 205.791 426 208 426Z" fill="#42526E"/>
        <path d="M514 396H256C251.582 396 248 399.582 248 404V440C248 444.418 251.582 448 256 448H514C518.418 448 522 444.418 522 440V404C522 399.582 518.418 396 514 396Z" fill="#EAE6FF"/>
        <path d="M496 412H274C268.477 412 264 416.477 264 422C264 427.523 268.477 432 274 432H496C501.523 432 506 427.523 506 422C506 416.477 501.523 412 496 412Z" fill="#97A0AF"/>
        <path d="M232 468H184V516H232V468Z" fill="white" fill-opacity="0.01"/>
        <path d="M208 496C210.209 496 212 494.209 212 492C212 489.791 210.209 488 208 488C205.791 488 204 489.791 204 492C204 494.209 205.791 496 208 496Z" fill="#42526E"/>
        <path d="M632 466H256C251.582 466 248 469.582 248 474V510C248 514.418 251.582 518 256 518H632C636.418 518 640 514.418 640 510V474C640 469.582 636.418 466 632 466Z" fill="#FFFAE6"/>
        <path d="M614 482H274C268.477 482 264 486.477 264 492C264 497.523 268.477 502 274 502H614C619.523 502 624 497.523 624 492C624 486.477 619.523 482 614 482Z" fill="#97A0AF"/>
    </g>
    <defs>
        <filter id="filter0_d_22_37" x="136" y="96" width="560" height="478" filterUnits="userSpaceOnUse" color-interpolation-filters="sRGB">
            <feFlood flood-opacity="0" result="BackgroundImageFix"/>
            <feColorMatrix in="SourceAlpha" type="matrix" values="0 0 0 0 0 0 0 0 0 0 0 0 0 0 0 0 0 0 127 0" result="hardAlpha"/>
            <feOffset dx="8" dy="8"/>
            <feComposite in2="hardAlpha" operator="out"/>
            <feColorMatrix type="matrix" values="0 0 0 0 0 0 0 0 0 0 0 0 0 0 0 0 0 0 0.1 0"/>
            <feBlend mode="normal" in2="BackgroundImageFix" result="effect1_dropShadow_22_37"/>
            <feBlend mode="normal" in="SourceGraphic" in2="effect1_dropShadow_22_37" result="shape"/>
        </filter>
    </defs>
</svg>